# MagicaVoxel @ ephtracy

# material
mtllib box.mtl
usemtl palette

# normals
vn -1 0 0
vn 1 0 0
vn 0 0 1
vn 0 0 -1
vn 0 -1 0
vn 0 1 0

# texcoords
vt 0.00195312 0.5
vt 0.0214844 0.5
vt 0.0878906 0.5
vt 0.306641 0.5
vt 0.587891 0.5
vt 0.728516 0.5

# verts
v -24 14 0.5
v -24 14 -5.5
v -24 17 0.5
v -24 17 -5.5
v -21 14 -1.5
v -21 14 -11.5
v -21 17 -1.5
v -21 17 -11.5
v -18 14 -1.5
v -18 14 -8.5
v -18 17 -1.5
v -18 17 -8.5
v -15 14 -1.5
v -15 14 -7.5
v -15 17 -1.5
v -15 17 -7.5
v -13 22 15.5
v -13 22 -16.5
v -13 24 15.5
v -13 24 -16.5
v -12 13 2.5
v -12 13 -3.5
v -12 14 0.5
v -12 14 -1.5
v -12 17 0.5
v -12 17 -1.5
v -12 18 2.5
v -12 18 -3.5
v -10 1 11.5
v -10 1 -12.5
v -10 13 2.5
v -10 13 -3.5
v -10 18 2.5
v -10 18 -3.5
v -10 22 11.5
v -10 22 -12.5
v -5 16 11.5
v -5 16 10.5
v -5 18 11.5
v -5 18 10.5
v -1 11 18.5
v -1 11 11.5
v -1 13 18.5
v -1 13 11.5
v 7 16 11.5
v 7 16 10.5
v 7 18 11.5
v 7 18 10.5
v 13 14 -1.5
v 13 14 -7.5
v 13 17 -1.5
v 13 17 -7.5
v 16 14 -1.5
v 16 14 -8.5
v 16 17 -1.5
v 16 17 -8.5
v 19 14 -1.5
v 19 14 -11.5
v 19 17 -1.5
v 19 17 -11.5
v 22 14 -0.5
v 22 14 -5.5
v 22 16 -0.5
v 22 16 -1.5
v 22 17 -1.5
v 22 17 -5.5
v -22 14 -1.5
v -22 14 -5.5
v -22 17 -1.5
v -22 17 -5.5
v -19 14 -1.5
v -19 14 -11.5
v -19 17 -1.5
v -19 17 -11.5
v -16 14 -1.5
v -16 14 -8.5
v -16 17 -1.5
v -16 17 -8.5
v -13 14 -1.5
v -13 14 -7.5
v -13 17 -1.5
v -13 17 -7.5
v -7 16 11.5
v -7 16 10.5
v -7 18 11.5
v -7 18 10.5
v 1 11 18.5
v 1 11 11.5
v 1 13 18.5
v 1 13 11.5
v 5 16 11.5
v 5 16 10.5
v 5 18 11.5
v 5 18 10.5
v 10 1 11.5
v 10 1 -12.5
v 10 13 2.5
v 10 13 -3.5
v 10 18 2.5
v 10 18 -3.5
v 10 22 11.5
v 10 22 -12.5
v 12 13 2.5
v 12 13 -3.5
v 12 14 0.5
v 12 14 -1.5
v 12 17 0.5
v 12 17 -1.5
v 12 18 2.5
v 12 18 -3.5
v 13 22 15.5
v 13 22 -16.5
v 13 24 15.5
v 13 24 -16.5
v 15 14 -1.5
v 15 14 -7.5
v 15 17 -1.5
v 15 17 -7.5
v 18 14 -1.5
v 18 14 -8.5
v 18 17 -1.5
v 18 17 -8.5
v 21 14 -0.5
v 21 14 -11.5
v 21 16 -0.5
v 21 16 -1.5
v 21 17 -1.5
v 21 17 -11.5
v 24 14 0.5
v 24 14 -5.5
v 24 17 0.5
v 24 17 -5.5
v -1 11 18.5
v -1 13 18.5
v 1 11 18.5
v 1 13 18.5
v -13 22 15.5
v -13 24 15.5
v 13 22 15.5
v 13 24 15.5
v -10 1 11.5
v -10 22 11.5
v -8 16 11.5
v -8 18 11.5
v -7 15 11.5
v -7 16 11.5
v -7 18 11.5
v -7 19 11.5
v -5 15 11.5
v -5 16 11.5
v -5 18 11.5
v -5 19 11.5
v -4 16 11.5
v -4 18 11.5
v -1 11 11.5
v -1 13 11.5
v 1 11 11.5
v 1 13 11.5
v 4 16 11.5
v 4 18 11.5
v 5 15 11.5
v 5 16 11.5
v 5 18 11.5
v 5 19 11.5
v 7 15 11.5
v 7 16 11.5
v 7 18 11.5
v 7 19 11.5
v 8 16 11.5
v 8 18 11.5
v 10 1 11.5
v 10 22 11.5
v -7 16 10.5
v -7 18 10.5
v -5 16 10.5
v -5 18 10.5
v 5 16 10.5
v 5 18 10.5
v 7 16 10.5
v 7 18 10.5
v -12 13 2.5
v -12 18 2.5
v -10 13 2.5
v -10 18 2.5
v 10 13 2.5
v 10 18 2.5
v 12 13 2.5
v 12 18 2.5
v -24 14 0.5
v -24 17 0.5
v -12 14 0.5
v -12 17 0.5
v 12 14 0.5
v 12 17 0.5
v 24 14 0.5
v 24 17 0.5
v 21 14 -0.5
v 21 16 -0.5
v 22 14 -0.5
v 22 16 -0.5
v -22 14 -1.5
v -22 17 -1.5
v -21 14 -1.5
v -21 17 -1.5
v -19 14 -1.5
v -19 17 -1.5
v -18 14 -1.5
v -18 17 -1.5
v -16 14 -1.5
v -16 17 -1.5
v -15 14 -1.5
v -15 17 -1.5
v -13 14 -1.5
v -13 17 -1.5
v -12 14 -1.5
v -12 17 -1.5
v 12 14 -1.5
v 12 17 -1.5
v 13 14 -1.5
v 13 17 -1.5
v 15 14 -1.5
v 15 17 -1.5
v 16 14 -1.5
v 16 17 -1.5
v 18 14 -1.5
v 18 17 -1.5
v 19 14 -1.5
v 19 17 -1.5
v 21 16 -1.5
v 21 17 -1.5
v 22 16 -1.5
v 22 17 -1.5
v -12 13 -3.5
v -12 18 -3.5
v -10 13 -3.5
v -10 18 -3.5
v 10 13 -3.5
v 10 18 -3.5
v 12 13 -3.5
v 12 18 -3.5
v -24 14 -5.5
v -24 17 -5.5
v -22 14 -5.5
v -22 17 -5.5
v 22 14 -5.5
v 22 17 -5.5
v 24 14 -5.5
v 24 17 -5.5
v -15 14 -7.5
v -15 17 -7.5
v -13 14 -7.5
v -13 17 -7.5
v 13 14 -7.5
v 13 17 -7.5
v 15 14 -7.5
v 15 17 -7.5
v -18 14 -8.5
v -18 17 -8.5
v -16 14 -8.5
v -16 17 -8.5
v 16 14 -8.5
v 16 17 -8.5
v 18 14 -8.5
v 18 17 -8.5
v -21 14 -11.5
v -21 17 -11.5
v -19 14 -11.5
v -19 17 -11.5
v 19 14 -11.5
v 19 17 -11.5
v 21 14 -11.5
v 21 17 -11.5
v -10 1 -12.5
v -10 22 -12.5
v 10 1 -12.5
v 10 22 -12.5
v -13 22 -16.5
v -13 24 -16.5
v 13 22 -16.5
v 13 24 -16.5
v -10 1 11.5
v 10 1 11.5
v -10 1 -12.5
v 10 1 -12.5
v -1 11 18.5
v 1 11 18.5
v -1 11 11.5
v 1 11 11.5
v -12 13 2.5
v -10 13 2.5
v 10 13 2.5
v 12 13 2.5
v -12 13 -3.5
v -10 13 -3.5
v 10 13 -3.5
v 12 13 -3.5
v -24 14 0.5
v -12 14 0.5
v 12 14 0.5
v 24 14 0.5
v 21 14 -0.5
v 22 14 -0.5
v -22 14 -1.5
v -21 14 -1.5
v -19 14 -1.5
v -18 14 -1.5
v -16 14 -1.5
v -15 14 -1.5
v -13 14 -1.5
v -12 14 -1.5
v 12 14 -1.5
v 13 14 -1.5
v 15 14 -1.5
v 16 14 -1.5
v 18 14 -1.5
v 19 14 -1.5
v -24 14 -5.5
v -22 14 -5.5
v 22 14 -5.5
v 24 14 -5.5
v -15 14 -7.5
v -13 14 -7.5
v 13 14 -7.5
v 15 14 -7.5
v -18 14 -8.5
v -16 14 -8.5
v 16 14 -8.5
v 18 14 -8.5
v -21 14 -11.5
v -19 14 -11.5
v 19 14 -11.5
v 21 14 -11.5
v 21 16 -0.5
v 22 16 -0.5
v 21 16 -1.5
v 22 16 -1.5
v -7 18 11.5
v -5 18 11.5
v 5 18 11.5
v 7 18 11.5
v -7 18 10.5
v -5 18 10.5
v 5 18 10.5
v 7 18 10.5
v -13 22 15.5
v 13 22 15.5
v -12 22 14.5
v 12 22 14.5
v -10 22 11.5
v 10 22 11.5
v -10 22 -12.5
v 10 22 -12.5
v -12 22 -15.5
v 12 22 -15.5
v -13 22 -16.5
v 13 22 -16.5
v -1 13 18.5
v 1 13 18.5
v -1 13 11.5
v 1 13 11.5
v -7 16 11.5
v -5 16 11.5
v 5 16 11.5
v 7 16 11.5
v -7 16 10.5
v -5 16 10.5
v 5 16 10.5
v 7 16 10.5
v -24 17 0.5
v -12 17 0.5
v 12 17 0.5
v 24 17 0.5
v -22 17 -1.5
v -21 17 -1.5
v -19 17 -1.5
v -18 17 -1.5
v -16 17 -1.5
v -15 17 -1.5
v -13 17 -1.5
v -12 17 -1.5
v 12 17 -1.5
v 13 17 -1.5
v 15 17 -1.5
v 16 17 -1.5
v 18 17 -1.5
v 19 17 -1.5
v 21 17 -1.5
v 22 17 -1.5
v -24 17 -5.5
v -22 17 -5.5
v 22 17 -5.5
v 24 17 -5.5
v -15 17 -7.5
v -13 17 -7.5
v 13 17 -7.5
v 15 17 -7.5
v -18 17 -8.5
v -16 17 -8.5
v 16 17 -8.5
v 18 17 -8.5
v -21 17 -11.5
v -19 17 -11.5
v 19 17 -11.5
v 21 17 -11.5
v -12 18 2.5
v -10 18 2.5
v 10 18 2.5
v 12 18 2.5
v -12 18 -3.5
v -10 18 -3.5
v 10 18 -3.5
v 12 18 -3.5
v -13 24 15.5
v 13 24 15.5
v -12 24 14.5
v 12 24 14.5
v -11 24 13.5
v 11 24 13.5
v -11 24 -14.5
v 11 24 -14.5
v -12 24 -15.5
v 12 24 -15.5
v -13 24 -16.5
v 13 24 -16.5

# faces
f 3/1/1 2/1/1 1/1/1
f 4/1/1 2/1/1 3/1/1
f 7/1/1 6/1/1 5/1/1
f 8/1/1 6/1/1 7/1/1
f 11/1/1 10/1/1 9/1/1
f 12/1/1 10/1/1 11/1/1
f 15/1/1 14/1/1 13/1/1
f 16/1/1 14/1/1 15/1/1
f 19/5/1 18/5/1 17/5/1
f 20/5/1 18/5/1 19/5/1
f 23/6/1 22/6/1 21/6/1
f 24/6/1 22/6/1 23/6/1
f 25/6/1 23/6/1 21/6/1
f 26/6/1 22/6/1 24/6/1
f 27/6/1 25/6/1 21/6/1
f 27/6/1 26/6/1 25/6/1
f 28/6/1 22/6/1 26/6/1
f 28/6/1 26/6/1 27/6/1
f 31/2/1 30/2/1 29/2/1
f 32/2/1 30/2/1 31/2/1
f 33/2/1 31/2/1 29/2/1
f 34/2/1 30/2/1 32/2/1
f 35/2/1 33/2/1 29/2/1
f 35/2/1 34/2/1 33/2/1
f 36/2/1 30/2/1 34/2/1
f 36/2/1 34/2/1 35/2/1
f 39/1/1 38/1/1 37/1/1
f 40/1/1 38/1/1 39/1/1
f 43/2/1 42/2/1 41/2/1
f 44/2/1 42/2/1 43/2/1
f 47/1/1 46/1/1 45/1/1
f 48/1/1 46/1/1 47/1/1
f 51/1/1 50/1/1 49/1/1
f 52/1/1 50/1/1 51/1/1
f 55/1/1 54/1/1 53/1/1
f 56/1/1 54/1/1 55/1/1
f 59/1/1 58/1/1 57/1/1
f 60/1/1 58/1/1 59/1/1
f 63/1/1 62/1/1 61/1/1
f 64/1/1 62/1/1 63/1/1
f 65/1/1 62/1/1 64/1/1
f 66/1/1 62/1/1 65/1/1
f 67/1/2 68/1/2 69/1/2
f 69/1/2 68/1/2 70/1/2
f 71/1/2 72/1/2 73/1/2
f 73/1/2 72/1/2 74/1/2
f 75/1/2 76/1/2 77/1/2
f 77/1/2 76/1/2 78/1/2
f 79/1/2 80/1/2 81/1/2
f 81/1/2 80/1/2 82/1/2
f 83/1/2 84/1/2 85/1/2
f 85/1/2 84/1/2 86/1/2
f 87/2/2 88/2/2 89/2/2
f 89/2/2 88/2/2 90/2/2
f 91/1/2 92/1/2 93/1/2
f 93/1/2 92/1/2 94/1/2
f 95/2/2 96/2/2 97/2/2
f 97/2/2 96/2/2 98/2/2
f 95/2/2 97/2/2 99/2/2
f 98/2/2 96/2/2 100/2/2
f 95/2/2 99/2/2 101/2/2
f 99/2/2 100/2/2 101/2/2
f 100/2/2 96/2/2 102/2/2
f 101/2/2 100/2/2 102/2/2
f 103/6/2 104/6/2 105/6/2
f 105/6/2 104/6/2 106/6/2
f 103/6/2 105/6/2 107/6/2
f 106/6/2 104/6/2 108/6/2
f 103/6/2 107/6/2 109/6/2
f 107/6/2 108/6/2 109/6/2
f 108/6/2 104/6/2 110/6/2
f 109/6/2 108/6/2 110/6/2
f 111/5/2 112/5/2 113/5/2
f 113/5/2 112/5/2 114/5/2
f 115/1/2 116/1/2 117/1/2
f 117/1/2 116/1/2 118/1/2
f 119/1/2 120/1/2 121/1/2
f 121/1/2 120/1/2 122/1/2
f 123/1/2 124/1/2 125/1/2
f 125/1/2 124/1/2 126/1/2
f 126/1/2 124/1/2 127/1/2
f 127/1/2 124/1/2 128/1/2
f 129/1/2 130/1/2 131/1/2
f 131/1/2 130/1/2 132/1/2
f 135/2/3 134/2/3 133/2/3
f 136/2/3 134/2/3 135/2/3
f 139/5/3 138/5/3 137/5/3
f 140/5/3 138/5/3 139/5/3
f 143/2/3 142/2/3 141/2/3
f 144/2/3 142/2/3 143/2/3
f 145/2/3 143/2/3 141/2/3
f 146/1/3 144/1/3 143/1/3
f 146/2/3 143/2/3 145/2/3
f 147/2/3 142/2/3 144/2/3
f 147/1/3 144/1/3 146/1/3
f 148/2/3 142/2/3 147/2/3
f 149/1/3 146/1/3 145/1/3
f 149/2/3 145/2/3 141/2/3
f 150/1/3 146/1/3 149/1/3
f 151/1/3 148/1/3 147/1/3
f 152/2/3 142/2/3 148/2/3
f 152/1/3 148/1/3 151/1/3
f 153/1/3 151/1/3 150/1/3
f 153/2/3 150/2/3 149/2/3
f 154/2/3 152/2/3 151/2/3
f 154/1/3 151/1/3 153/1/3
f 155/2/3 153/2/3 149/2/3
f 155/2/3 149/2/3 141/2/3
f 155/2/3 154/2/3 153/2/3
f 156/2/3 154/2/3 155/2/3
f 157/2/3 155/2/3 141/2/3
f 158/2/3 154/2/3 156/2/3
f 159/2/3 154/2/3 158/2/3
f 159/2/3 158/2/3 157/2/3
f 160/2/3 152/2/3 154/2/3
f 160/2/3 154/2/3 159/2/3
f 161/2/3 159/2/3 157/2/3
f 162/1/3 160/1/3 159/1/3
f 162/2/3 159/2/3 161/2/3
f 163/2/3 152/2/3 160/2/3
f 163/1/3 160/1/3 162/1/3
f 164/2/3 142/2/3 152/2/3
f 164/2/3 152/2/3 163/2/3
f 165/1/3 162/1/3 161/1/3
f 165/2/3 161/2/3 157/2/3
f 166/1/3 162/1/3 165/1/3
f 167/1/3 164/1/3 163/1/3
f 168/2/3 142/2/3 164/2/3
f 168/1/3 164/1/3 167/1/3
f 169/1/3 167/1/3 166/1/3
f 169/2/3 166/2/3 165/2/3
f 170/2/3 168/2/3 167/2/3
f 170/1/3 167/1/3 169/1/3
f 171/2/3 169/2/3 165/2/3
f 171/2/3 157/2/3 141/2/3
f 171/2/3 170/2/3 169/2/3
f 171/2/3 165/2/3 157/2/3
f 172/2/3 142/2/3 168/2/3
f 172/2/3 170/2/3 171/2/3
f 172/2/3 168/2/3 170/2/3
f 175/3/3 174/3/3 173/3/3
f 176/3/3 174/3/3 175/3/3
f 179/3/3 178/3/3 177/3/3
f 180/3/3 178/3/3 179/3/3
f 183/6/3 182/6/3 181/6/3
f 184/6/3 182/6/3 183/6/3
f 187/6/3 186/6/3 185/6/3
f 188/6/3 186/6/3 187/6/3
f 191/1/3 190/1/3 189/1/3
f 192/1/3 190/1/3 191/1/3
f 195/1/3 194/1/3 193/1/3
f 196/1/3 194/1/3 195/1/3
f 197/1/4 198/1/4 199/1/4
f 199/1/4 198/1/4 200/1/4
f 201/1/4 202/1/4 203/1/4
f 203/1/4 202/1/4 204/1/4
f 205/1/4 206/1/4 207/1/4
f 207/1/4 206/1/4 208/1/4
f 209/1/4 210/1/4 211/1/4
f 211/1/4 210/1/4 212/1/4
f 213/1/4 214/1/4 215/1/4
f 215/1/4 214/1/4 216/1/4
f 217/1/4 218/1/4 219/1/4
f 219/1/4 218/1/4 220/1/4
f 221/1/4 222/1/4 223/1/4
f 223/1/4 222/1/4 224/1/4
f 225/1/4 226/1/4 227/1/4
f 227/1/4 226/1/4 228/1/4
f 229/1/4 230/1/4 231/1/4
f 231/1/4 230/1/4 232/1/4
f 233/6/4 234/6/4 235/6/4
f 235/6/4 234/6/4 236/6/4
f 237/6/4 238/6/4 239/6/4
f 239/6/4 238/6/4 240/6/4
f 241/1/4 242/1/4 243/1/4
f 243/1/4 242/1/4 244/1/4
f 245/1/4 246/1/4 247/1/4
f 247/1/4 246/1/4 248/1/4
f 249/1/4 250/1/4 251/1/4
f 251/1/4 250/1/4 252/1/4
f 253/1/4 254/1/4 255/1/4
f 255/1/4 254/1/4 256/1/4
f 257/1/4 258/1/4 259/1/4
f 259/1/4 258/1/4 260/1/4
f 261/1/4 262/1/4 263/1/4
f 263/1/4 262/1/4 264/1/4
f 265/1/4 266/1/4 267/1/4
f 267/1/4 266/1/4 268/1/4
f 269/1/4 270/1/4 271/1/4
f 271/1/4 270/1/4 272/1/4
f 273/2/4 274/2/4 275/2/4
f 275/2/4 274/2/4 276/2/4
f 277/5/4 278/5/4 279/5/4
f 279/5/4 278/5/4 280/5/4
f 283/2/5 282/2/5 281/2/5
f 284/2/5 282/2/5 283/2/5
f 287/2/5 286/2/5 285/2/5
f 288/2/5 286/2/5 287/2/5
f 293/6/5 290/6/5 289/6/5
f 294/6/5 290/6/5 293/6/5
f 295/6/5 292/6/5 291/6/5
f 296/6/5 292/6/5 295/6/5
f 301/1/5 300/1/5 299/1/5
f 302/1/5 300/1/5 301/1/5
f 303/1/5 298/1/5 297/1/5
f 304/1/5 298/1/5 303/1/5
f 305/1/5 298/1/5 304/1/5
f 306/1/5 298/1/5 305/1/5
f 307/1/5 298/1/5 306/1/5
f 308/1/5 298/1/5 307/1/5
f 309/1/5 298/1/5 308/1/5
f 310/1/5 298/1/5 309/1/5
f 311/1/5 301/1/5 299/1/5
f 312/1/5 301/1/5 311/1/5
f 313/1/5 301/1/5 312/1/5
f 314/1/5 301/1/5 313/1/5
f 315/1/5 301/1/5 314/1/5
f 316/1/5 301/1/5 315/1/5
f 317/1/5 303/1/5 297/1/5
f 318/1/5 303/1/5 317/1/5
f 319/1/5 300/1/5 302/1/5
f 320/1/5 300/1/5 319/1/5
f 321/1/5 309/1/5 308/1/5
f 322/1/5 309/1/5 321/1/5
f 323/1/5 313/1/5 312/1/5
f 324/1/5 313/1/5 323/1/5
f 325/1/5 307/1/5 306/1/5
f 326/1/5 307/1/5 325/1/5
f 327/1/5 315/1/5 314/1/5
f 328/1/5 315/1/5 327/1/5
f 329/1/5 305/1/5 304/1/5
f 330/1/5 305/1/5 329/1/5
f 331/1/5 301/1/5 316/1/5
f 332/1/5 301/1/5 331/1/5
f 335/1/5 334/1/5 333/1/5
f 336/1/5 334/1/5 335/1/5
f 341/1/5 338/1/5 337/1/5
f 342/1/5 338/1/5 341/1/5
f 343/1/5 340/1/5 339/1/5
f 344/1/5 340/1/5 343/1/5
f 347/5/5 346/5/5 345/5/5
f 348/5/5 346/5/5 347/5/5
f 349/6/5 348/6/5 347/6/5
f 350/6/5 348/6/5 349/6/5
f 351/6/5 349/6/5 347/6/5
f 352/6/5 348/6/5 350/6/5
f 353/5/5 347/5/5 345/5/5
f 353/6/5 352/6/5 351/6/5
f 353/6/5 351/6/5 347/6/5
f 354/6/5 348/6/5 352/6/5
f 354/6/5 352/6/5 353/6/5
f 354/5/5 346/5/5 348/5/5
f 355/5/5 353/5/5 345/5/5
f 355/5/5 354/5/5 353/5/5
f 356/5/5 346/5/5 354/5/5
f 356/5/5 354/5/5 355/5/5
f 357/2/6 358/2/6 359/2/6
f 359/2/6 358/2/6 360/2/6
f 361/1/6 362/1/6 365/1/6
f 365/1/6 362/1/6 366/1/6
f 363/1/6 364/1/6 367/1/6
f 367/1/6 364/1/6 368/1/6
f 369/1/6 370/1/6 373/1/6
f 373/1/6 370/1/6 374/1/6
f 374/1/6 370/1/6 375/1/6
f 375/1/6 370/1/6 376/1/6
f 376/1/6 370/1/6 377/1/6
f 377/1/6 370/1/6 378/1/6
f 378/1/6 370/1/6 379/1/6
f 379/1/6 370/1/6 380/1/6
f 371/1/6 372/1/6 381/1/6
f 381/1/6 372/1/6 382/1/6
f 382/1/6 372/1/6 383/1/6
f 383/1/6 372/1/6 384/1/6
f 384/1/6 372/1/6 385/1/6
f 385/1/6 372/1/6 386/1/6
f 386/1/6 372/1/6 387/1/6
f 387/1/6 372/1/6 388/1/6
f 369/1/6 373/1/6 389/1/6
f 389/1/6 373/1/6 390/1/6
f 388/1/6 372/1/6 391/1/6
f 391/1/6 372/1/6 392/1/6
f 378/1/6 379/1/6 393/1/6
f 393/1/6 379/1/6 394/1/6
f 382/1/6 383/1/6 395/1/6
f 395/1/6 383/1/6 396/1/6
f 376/1/6 377/1/6 397/1/6
f 397/1/6 377/1/6 398/1/6
f 384/1/6 385/1/6 399/1/6
f 399/1/6 385/1/6 400/1/6
f 374/1/6 375/1/6 401/1/6
f 401/1/6 375/1/6 402/1/6
f 386/1/6 387/1/6 403/1/6
f 403/1/6 387/1/6 404/1/6
f 405/6/6 406/6/6 409/6/6
f 409/6/6 406/6/6 410/6/6
f 407/6/6 408/6/6 411/6/6
f 411/6/6 408/6/6 412/6/6
f 413/5/6 414/5/6 415/5/6
f 415/5/6 414/5/6 416/5/6
f 415/6/6 416/6/6 417/6/6
f 417/6/6 416/6/6 418/6/6
f 415/6/6 417/6/6 419/6/6
f 417/5/6 418/5/6 419/5/6
f 418/6/6 416/6/6 420/6/6
f 419/5/6 418/5/6 420/5/6
f 413/5/6 415/5/6 421/5/6
f 415/6/6 419/6/6 421/6/6
f 419/6/6 420/6/6 421/6/6
f 420/6/6 416/6/6 422/6/6
f 421/6/6 420/6/6 422/6/6
f 416/5/6 414/5/6 422/5/6
f 413/5/6 421/5/6 423/5/6
f 421/5/6 422/5/6 423/5/6
f 422/5/6 414/5/6 424/5/6
f 423/5/6 422/5/6 424/5/6
